<svg id="visual" viewBox="0 0 900 600" width="900" height="600" xmlns="http://www.w3.org/2000/svg" xmlns:xlink="http://www.w3.org/1999/xlink" version="1.1"><rect x="0" y="0" width="900" height="600" fill="#D5D3CC"></rect><path d="M0 351L21.5 356C43 361 86 371 128.8 371.2C171.7 371.3 214.3 361.7 257.2 363.2C300 364.7 343 377.3 385.8 390C428.7 402.7 471.3 415.3 514.2 414.8C557 414.3 600 400.7 642.8 395.7C685.7 390.7 728.3 394.3 771.2 389.5C814 384.7 857 371.3 878.5 364.7L900 358L900 601L878.5 601C857 601 814 601 771.2 601C728.3 601 685.7 601 642.8 601C600 601 557 601 514.2 601C471.3 601 428.7 601 385.8 601C343 601 300 601 257.2 601C214.3 601 171.7 601 128.8 601C86 601 43 601 21.5 601L0 601Z" fill="#38b996"></path><path d="M0 451L21.5 451.3C43 451.7 86 452.3 128.8 453.3C171.7 454.3 214.3 455.7 257.2 453C300 450.3 343 443.7 385.8 439.5C428.7 435.3 471.3 433.7 514.2 428.2C557 422.7 600 413.3 642.8 415.7C685.7 418 728.3 432 771.2 434.7C814 437.3 857 428.7 878.5 424.3L900 420L900 601L878.5 601C857 601 814 601 771.2 601C728.3 601 685.7 601 642.8 601C600 601 557 601 514.2 601C471.3 601 428.7 601 385.8 601C343 601 300 601 257.2 601C214.3 601 171.7 601 128.8 601C86 601 43 601 21.5 601L0 601Z" fill="#329c80"></path><path d="M0 466L21.5 472.5C43 479 86 492 128.8 491.2C171.7 490.3 214.3 475.7 257.2 465C300 454.3 343 447.7 385.8 451.8C428.7 456 471.3 471 514.2 474.3C557 477.7 600 469.3 642.8 469.2C685.7 469 728.3 477 771.2 474C814 471 857 457 878.5 450L900 443L900 601L878.5 601C857 601 814 601 771.2 601C728.3 601 685.7 601 642.8 601C600 601 557 601 514.2 601C471.3 601 428.7 601 385.8 601C343 601 300 601 257.2 601C214.3 601 171.7 601 128.8 601C86 601 43 601 21.5 601L0 601Z" fill="#2d7f6a"></path><path d="M0 524L21.5 517.5C43 511 86 498 128.8 497.7C171.7 497.3 214.3 509.7 257.2 509.2C300 508.7 343 495.3 385.8 495C428.7 494.7 471.3 507.3 514.2 510.5C557 513.7 600 507.3 642.8 509.5C685.7 511.7 728.3 522.3 771.2 527.3C814 532.3 857 531.7 878.5 531.3L900 531L900 601L878.5 601C857 601 814 601 771.2 601C728.3 601 685.7 601 642.8 601C600 601 557 601 514.2 601C471.3 601 428.7 601 385.8 601C343 601 300 601 257.2 601C214.3 601 171.7 601 128.8 601C86 601 43 601 21.5 601L0 601Z" fill="#286354"></path><path d="M0 541L21.5 542.5C43 544 86 547 128.8 548.2C171.7 549.3 214.3 548.7 257.2 550.3C300 552 343 556 385.8 554.7C428.7 553.3 471.3 546.7 514.2 542.3C557 538 600 536 642.8 537.3C685.7 538.7 728.3 543.3 771.2 546.8C814 550.3 857 552.7 878.5 553.8L900 555L900 601L878.5 601C857 601 814 601 771.2 601C728.3 601 685.7 601 642.8 601C600 601 557 601 514.2 601C471.3 601 428.7 601 385.8 601C343 601 300 601 257.2 601C214.3 601 171.7 601 128.8 601C86 601 43 601 21.5 601L0 601Z" fill="#22493f"></path></svg>