<svg width="900" height="600" viewBox="0 0 900 600" fill="none" xmlns="http://www.w3.org/2000/svg">
<g clip-path="url(#clip0_15_2)">
<path d="M900 600H0V0H900V600Z" fill="#D5D3CC"/>
<path d="M0 249L21.5 244C43 239 86 229 128.8 228.8C171.7 228.7 214.3 238.3 257.2 236.8C300 235.3 343 222.7 385.8 210C428.7 197.3 471.3 184.7 514.2 185.2C557 185.7 600 199.3 642.8 204.3C685.7 209.3 728.3 205.7 771.2 210.5C814 215.3 857 228.7 878.5 235.3L900 242V-1H878.5C857 -1 814 -1 771.2 -1C728.3 -1 685.7 -1 642.8 -1C600 -1 557 -1 514.2 -1C471.3 -1 428.7 -1 385.8 -1C343 -1 300 -1 257.2 -1C214.3 -1 171.7 -1 128.8 -1C86 -1 43 -1 21.5 -1H0V249Z" fill="#38B996"/>
<path d="M0 149L21.5 148.7C43 148.3 86 147.7 128.8 146.7C171.7 145.7 214.3 144.3 257.2 147C300 149.7 343 156.3 385.8 160.5C428.7 164.7 471.3 166.3 514.2 171.8C557 177.3 600 186.7 642.8 184.3C685.7 182 728.3 168 771.2 165.3C814 162.7 857 171.3 878.5 175.7L900 180V-0.999969H878.5C857 -0.999969 814 -0.999969 771.2 -0.999969C728.3 -0.999969 685.7 -0.999969 642.8 -0.999969C600 -0.999969 557 -0.999969 514.2 -0.999969C471.3 -0.999969 428.7 -0.999969 385.8 -0.999969C343 -0.999969 300 -0.999969 257.2 -0.999969C214.3 -0.999969 171.7 -0.999969 128.8 -0.999969C86 -0.999969 43 -0.999969 21.5 -0.999969H0V149Z" fill="#329C80"/>
<path d="M0 134L21.5 127.5C43 121 86 108 128.8 108.8C171.7 109.7 214.3 124.3 257.2 135C300 145.7 343 152.3 385.8 148.2C428.7 144 471.3 129 514.2 125.7C557 122.3 600 130.7 642.8 130.8C685.7 131 728.3 123 771.2 126C814 129 857 143 878.5 150L900 157V-1H878.5C857 -1 814 -1 771.2 -1C728.3 -1 685.7 -1 642.8 -1C600 -1 557 -1 514.2 -1C471.3 -1 428.7 -1 385.8 -1C343 -1 300 -1 257.2 -1C214.3 -1 171.7 -1 128.8 -1C86 -1 43 -1 21.5 -1H0V134Z" fill="#2D7F6A"/>
<path d="M0 76L21.5 82.5C43 89 86 102 128.8 102.3C171.7 102.7 214.3 90.3 257.2 90.8C300 91.3 343 104.7 385.8 105C428.7 105.3 471.3 92.7 514.2 89.5C557 86.3 600 92.7 642.8 90.5C685.7 88.3 728.3 77.7 771.2 72.7C814 67.7 857 68.3 878.5 68.7L900 69V-1.00002H878.5C857 -1.00002 814 -1.00002 771.2 -1.00002C728.3 -1.00002 685.7 -1.00002 642.8 -1.00002C600 -1.00002 557 -1.00002 514.2 -1.00002C471.3 -1.00002 428.7 -1.00002 385.8 -1.00002C343 -1.00002 300 -1.00002 257.2 -1.00002C214.3 -1.00002 171.7 -1.00002 128.8 -1.00002C86 -1.00002 43 -1.00002 21.5 -1.00002H0V76Z" fill="#286354"/>
<path d="M0 58.9999L21.5 57.4999C43 55.9999 86 52.9999 128.8 51.7999C171.7 50.6999 214.3 51.2999 257.2 49.6999C300 47.9999 343 43.9999 385.8 45.2999C428.7 46.6999 471.3 53.2999 514.2 57.6999C557 61.9999 600 63.9999 642.8 62.6999C685.7 61.2999 728.3 56.6999 771.2 53.1999C814 49.6999 857 47.2999 878.5 46.1999L900 44.9999V-1.00007H878.5C857 -1.00007 814 -1.00007 771.2 -1.00007C728.3 -1.00007 685.7 -1.00007 642.8 -1.00007C600 -1.00007 557 -1.00007 514.2 -1.00007C471.3 -1.00007 428.7 -1.00007 385.8 -1.00007C343 -1.00007 300 -1.00007 257.2 -1.00007C214.3 -1.00007 171.7 -1.00007 128.8 -1.00007C86 -1.00007 43 -1.00007 21.5 -1.00007H0V58.9999Z" fill="#22493F"/>
</g>
<defs>
<clipPath id="clip0_15_2">
<rect width="900" height="600" fill="white" transform="matrix(1 0 0 -1 0 600)"/>
</clipPath>
</defs>
</svg>
