<svg id="visual" viewBox="0 0 900 600" width="900" height="600" xmlns="http://www.w3.org/2000/svg" xmlns:xlink="http://www.w3.org/1999/xlink" version="1.1"><rect x="0" y="0" width="900" height="600" fill="#D5D3CC"></rect><path d="M0 76L21.5 74C43 72 86 68 128.8 71.8C171.7 75.7 214.3 87.3 257.2 86.8C300 86.3 343 73.7 385.8 72.2C428.7 70.7 471.3 80.3 514.2 85.2C557 90 600 90 642.8 90.2C685.7 90.3 728.3 90.7 771.2 91.8C814 93 857 95 878.5 96L900 97L900 0L878.5 0C857 0 814 0 771.2 0C728.3 0 685.7 0 642.8 0C600 0 557 0 514.2 0C471.3 0 428.7 0 385.8 0C343 0 300 0 257.2 0C214.3 0 171.7 0 128.8 0C86 0 43 0 21.5 0L0 0Z" fill="#38b996"></path><path d="M0 69L21.5 65.8C43 62.7 86 56.3 128.8 54.8C171.7 53.3 214.3 56.7 257.2 58.5C300 60.3 343 60.7 385.8 60.3C428.7 60 471.3 59 514.2 57.5C557 56 600 54 642.8 51.3C685.7 48.7 728.3 45.3 771.2 45.5C814 45.7 857 49.3 878.5 51.2L900 53L900 0L878.5 0C857 0 814 0 771.2 0C728.3 0 685.7 0 642.8 0C600 0 557 0 514.2 0C471.3 0 428.7 0 385.8 0C343 0 300 0 257.2 0C214.3 0 171.7 0 128.8 0C86 0 43 0 21.5 0L0 0Z" fill="#308d75"></path><path d="M0 21L21.5 21.8C43 22.7 86 24.3 128.8 26.5C171.7 28.7 214.3 31.3 257.2 30.7C300 30 343 26 385.8 25.7C428.7 25.3 471.3 28.7 514.2 27.3C557 26 600 20 642.8 21.5C685.7 23 728.3 32 771.2 35.2C814 38.3 857 35.7 878.5 34.3L900 33L900 0L878.5 0C857 0 814 0 771.2 0C728.3 0 685.7 0 642.8 0C600 0 557 0 514.2 0C471.3 0 428.7 0 385.8 0C343 0 300 0 257.2 0C214.3 0 171.7 0 128.8 0C86 0 43 0 21.5 0L0 0Z" fill="#286354"></path></svg>