<svg width="631" height="106" viewBox="0 0 631 106" fill="none" xmlns="http://www.w3.org/2000/svg">
<path d="M18.4855 43.912H7.4775L8.8855 38.152L33.7175 32.904L27.8295 56.2L29.1095 56.584C30.6455 52.744 32.1815 49.3733 33.7175 46.472C35.2535 43.4853 36.8748 41.0107 38.5815 39.048C40.2882 37 42.1655 35.464 44.2135 34.44C46.2615 33.416 48.5228 32.904 50.9975 32.904C54.4962 32.904 57.1415 33.8 58.9335 35.592C60.8108 37.2987 61.7495 39.5173 61.7495 42.248C61.7495 44.808 60.9388 47.0693 59.3175 49.032C57.6962 50.9947 55.4775 51.976 52.6615 51.976C50.5282 51.976 48.7788 51.3787 47.4135 50.184C46.1335 48.9893 45.4935 47.4107 45.4935 45.448C45.4935 44.2533 45.7495 43.1013 46.2615 41.992C46.8588 40.7973 47.4988 39.8587 48.1815 39.176L47.4135 38.28C45.1948 38.7067 42.8055 40.6267 40.2455 44.04C37.6855 47.368 35.1255 51.6773 32.5655 56.968C31.7975 58.5893 30.9015 60.552 29.8775 62.856C28.8535 65.16 27.8295 67.6773 26.8055 70.408C25.8668 73.0533 24.9282 75.8267 23.9895 78.728C23.0508 81.6293 22.2402 84.4453 21.5575 87.176L18.1015 101H4.2775L18.4855 43.912ZM79.7155 102.536C73.4862 102.536 68.9208 100.744 66.0195 97.16C63.2035 93.576 61.7955 88.328 61.7955 81.416C61.7955 78.1733 62.0942 74.7173 62.6915 71.048C63.2888 67.3787 64.1848 63.752 65.3795 60.168C66.6595 56.584 68.2808 53.1707 70.2435 49.928C72.2062 46.6 74.5102 43.6987 77.1555 41.224C79.8008 38.664 82.7875 36.6587 86.1155 35.208C89.5288 33.672 93.3262 32.904 97.5075 32.904C99.7262 32.904 101.86 33.16 103.908 33.672C106.041 34.0987 107.918 34.824 109.54 35.848C111.246 36.872 112.569 38.2373 113.508 39.944C114.532 41.6507 115.044 43.7413 115.044 46.216C115.044 48.4347 114.489 50.7387 113.38 53.128C112.27 55.432 110.308 57.608 107.492 59.656C104.761 61.704 101.006 63.4533 96.2275 64.904C91.4488 66.3547 85.4328 67.336 78.1795 67.848C77.4968 70.5787 76.9422 73.3093 76.5155 76.04C76.1742 78.6853 76.0035 81.0747 76.0035 83.208C76.0035 90.4613 78.8195 94.088 84.4515 94.088C88.2915 94.088 91.9182 92.4667 95.3315 89.224C98.8302 85.9813 102.116 81.4587 105.188 75.656L109.54 77.704C107.492 81.8 105.444 85.4267 103.396 88.584C101.348 91.656 99.1288 94.2587 96.7395 96.392C94.4355 98.44 91.8755 99.976 89.0595 101C86.2435 102.024 83.1288 102.536 79.7155 102.536ZM79.2035 63.368C87.7368 62.2587 93.7955 60.2533 97.3795 57.352C100.964 54.3653 102.756 50.6107 102.756 46.088C102.756 43.9547 102.244 42.2053 101.22 40.84C100.281 39.4747 98.6168 38.792 96.2275 38.792C94.3502 38.792 92.6435 39.2187 91.1075 40.072C89.5715 40.84 88.1208 42.2053 86.7555 44.168C85.3902 46.0453 84.0675 48.5627 82.7875 51.72C81.5928 54.8773 80.3982 58.76 79.2035 63.368ZM613.465 102.536C610.99 102.536 609.027 101.811 607.577 100.36C606.211 98.824 605.529 96.9893 605.529 94.856V94.088C605.529 91.9547 606.211 90.1627 607.577 88.712C609.027 87.176 610.99 86.408 613.465 86.408C615.939 86.408 617.859 87.176 619.225 88.712C620.675 90.1627 621.401 91.9547 621.401 94.088V94.856C621.401 96.9893 620.675 98.824 619.225 100.36C617.859 101.811 615.939 102.536 613.465 102.536Z" fill="#38B996"/>
<path d="M151.903 102.536C147.124 102.536 142.857 101.725 139.103 100.104C135.433 98.3973 132.319 96.0507 129.759 93.064C127.199 89.992 125.236 86.3653 123.871 82.184C122.505 77.9173 121.823 73.1813 121.823 67.976C121.823 62.6853 122.548 57.9067 123.999 53.64C125.535 49.3733 127.668 45.7467 130.399 42.76C133.129 39.7733 136.372 37.4693 140.127 35.848C143.967 34.2267 148.191 33.416 152.799 33.416C159.711 33.416 165.172 34.9093 169.183 37.896C173.279 40.7973 175.327 44.5093 175.327 49.032C175.327 51.7627 174.601 53.896 173.151 55.432C171.785 56.968 169.865 57.736 167.391 57.736C164.745 57.736 162.783 56.968 161.503 55.432C160.223 53.896 159.583 52.0613 159.583 49.928C159.583 48.0507 160.052 46.4293 160.991 45.064C161.929 43.6987 163.252 42.632 164.959 41.864V41.48C163.849 40.7973 162.399 40.2853 160.607 39.944C158.9 39.6027 156.681 39.432 153.951 39.432C150.964 39.432 148.191 39.9867 145.631 41.096C143.156 42.2053 141.023 43.784 139.231 45.832C137.439 47.7947 136.031 50.1413 135.007 52.872C133.983 55.5173 133.471 58.4187 133.471 61.576V71.048C133.471 74.5467 133.94 77.7467 134.878 80.648C135.817 83.464 137.14 85.896 138.847 87.944C140.639 89.992 142.729 91.5707 145.119 92.68C147.593 93.7893 150.367 94.344 153.439 94.344C158.644 94.344 162.74 93.2773 165.727 91.144C168.713 88.9253 171.103 86.0667 172.895 82.568L176.991 85.256C176.223 87.4747 175.113 89.6507 173.663 91.784C172.212 93.832 170.463 95.6667 168.415 97.288C166.367 98.824 163.935 100.061 161.119 101C158.388 102.024 155.316 102.536 151.903 102.536ZM216.909 96.264C220.066 96.264 222.797 95.752 225.101 94.728C227.49 93.6187 229.41 92.1253 230.861 90.248C232.397 88.2853 233.506 86.024 234.189 83.464C234.957 80.8187 235.341 77.96 235.341 74.888V61.064C235.341 57.992 234.957 55.176 234.189 52.616C233.506 49.9707 232.397 47.7093 230.861 45.832C229.41 43.8693 227.49 42.376 225.101 41.352C222.797 40.2427 220.066 39.688 216.909 39.688C213.666 39.688 210.893 40.2427 208.589 41.352C206.285 42.376 204.365 43.8693 202.829 45.832C201.378 47.7093 200.269 49.9707 199.501 52.616C198.818 55.176 198.477 57.992 198.477 61.064V74.888C198.477 77.96 198.818 80.8187 199.501 83.464C200.269 86.024 201.378 88.2853 202.829 90.248C204.365 92.1253 206.285 93.6187 208.589 94.728C210.893 95.752 213.666 96.264 216.909 96.264ZM216.909 102.536C212.386 102.536 208.247 101.725 204.493 100.104C200.738 98.4827 197.538 96.1787 194.893 93.192C192.247 90.12 190.199 86.4933 188.749 82.312C187.298 78.0453 186.573 73.2667 186.573 67.976C186.573 62.7707 187.298 58.0347 188.749 53.768C190.199 49.5013 192.247 45.8747 194.893 42.888C197.538 39.816 200.738 37.4693 204.493 35.848C208.247 34.2267 212.386 33.416 216.909 33.416C221.431 33.416 225.57 34.2267 229.325 35.848C233.079 37.4693 236.279 39.816 238.925 42.888C241.57 45.8747 243.618 49.5013 245.069 53.768C246.519 58.0347 247.245 62.7707 247.245 67.976C247.245 73.2667 246.519 78.0453 245.069 82.312C243.618 86.4933 241.57 90.12 238.925 93.192C236.279 96.1787 233.079 98.4827 229.325 100.104C225.57 101.725 221.431 102.536 216.909 102.536ZM259.463 95.112H268.935V43.272L259.463 41.608V37.256L279.175 33.416V44.936H279.687C280.199 43.656 280.967 42.3333 281.991 40.968C283.1 39.6027 284.423 38.3653 285.958 37.256C287.58 36.1467 289.457 35.2507 291.591 34.568C293.724 33.8 296.071 33.416 298.631 33.416C306.567 33.416 312.241 35.5067 315.655 39.688C319.153 43.784 320.903 49.9707 320.903 58.248V95.112H330.375V101H300.935V95.112H310.407V59.144C310.407 46.856 305.244 40.712 294.919 40.712C293.041 40.712 291.164 40.968 289.287 41.48C287.495 41.992 285.831 42.8027 284.295 43.912C282.844 45.0213 281.649 46.3867 280.711 48.008C279.857 49.6293 279.431 51.5493 279.431 53.768V95.112H288.903V101H259.463V95.112ZM341.213 95.112H350.685V43.272L341.213 41.608V37.256L360.925 33.416V44.936H361.437C361.949 43.656 362.717 42.3333 363.741 40.968C364.85 39.6027 366.173 38.3653 367.708 37.256C369.33 36.1467 371.207 35.2507 373.341 34.568C375.474 33.8 377.821 33.416 380.381 33.416C388.317 33.416 393.991 35.5067 397.405 39.688C400.903 43.784 402.653 49.9707 402.653 58.248V95.112H412.125V101H382.685V95.112H392.157V59.144C392.157 46.856 386.994 40.712 376.669 40.712C374.791 40.712 372.914 40.968 371.037 41.48C369.245 41.992 367.581 42.8027 366.045 43.912C364.594 45.0213 363.399 46.3867 362.461 48.008C361.607 49.6293 361.181 51.5493 361.181 53.768V95.112H370.653V101H341.213V95.112ZM452.275 102.536C447.581 102.536 443.357 101.725 439.603 100.104C435.933 98.3973 432.819 96.0507 430.259 93.064C427.699 90.0773 425.736 86.4507 424.371 82.184C423.005 77.9173 422.323 73.1813 422.323 67.976C422.323 62.856 423.048 58.2053 424.499 54.024C426.035 49.7573 428.083 46.088 430.643 43.016C433.288 39.944 436.403 37.5973 439.987 35.976C443.571 34.2693 447.496 33.416 451.763 33.416C456.115 33.416 459.997 34.184 463.411 35.72C466.824 37.256 469.683 39.432 471.987 42.248C474.376 44.9787 476.211 48.264 477.491 52.104C478.771 55.944 479.411 60.1253 479.411 64.648V67.592H433.971V70.92C433.971 78.1733 435.763 83.8907 439.347 88.072C443.016 92.2533 447.88 94.344 453.939 94.344C459.229 94.344 463.411 93.2773 466.483 91.144C469.64 88.9253 472.115 86.0667 473.907 82.568L478.131 85.256C477.277 87.4747 476.083 89.6507 474.547 91.784C473.096 93.832 471.304 95.6667 469.171 97.288C467.037 98.824 464.563 100.061 461.747 101C458.931 102.024 455.773 102.536 452.275 102.536ZM433.971 61.704H468.403V60.424C468.403 57.4373 468.061 54.664 467.379 52.104C466.781 49.544 465.8 47.3253 464.435 45.448C463.069 43.5707 461.32 42.12 459.187 41.096C457.139 39.9867 454.664 39.432 451.763 39.432C448.861 39.432 446.301 39.944 444.083 40.968C441.864 41.992 439.987 43.4427 438.451 45.32C437 47.1973 435.891 49.416 435.123 51.976C434.355 54.4507 433.971 57.1813 433.971 60.168V61.704ZM521.028 102.536C516.249 102.536 511.982 101.725 508.228 100.104C504.558 98.3973 501.444 96.0507 498.884 93.064C496.324 89.992 494.361 86.3653 492.996 82.184C491.63 77.9173 490.948 73.1813 490.948 67.976C490.948 62.6853 491.673 57.9067 493.124 53.64C494.66 49.3733 496.793 45.7467 499.524 42.76C502.254 39.7733 505.497 37.4693 509.252 35.848C513.092 34.2267 517.316 33.416 521.924 33.416C528.836 33.416 534.297 34.9093 538.308 37.896C542.404 40.7973 544.452 44.5093 544.452 49.032C544.452 51.7627 543.726 53.896 542.276 55.432C540.91 56.968 538.99 57.736 536.516 57.736C533.87 57.736 531.908 56.968 530.628 55.432C529.348 53.896 528.708 52.0613 528.708 49.928C528.708 48.0507 529.177 46.4293 530.116 45.064C531.054 43.6987 532.377 42.632 534.084 41.864V41.48C532.974 40.7973 531.524 40.2853 529.732 39.944C528.025 39.6027 525.806 39.432 523.076 39.432C520.089 39.432 517.316 39.9867 514.756 41.096C512.281 42.2053 510.148 43.784 508.356 45.832C506.564 47.7947 505.156 50.1413 504.132 52.872C503.108 55.5173 502.596 58.4187 502.596 61.576V71.048C502.596 74.5467 503.065 77.7467 504.003 80.648C504.942 83.464 506.265 85.896 507.972 87.944C509.764 89.992 511.854 91.5707 514.244 92.68C516.718 93.7893 519.492 94.344 522.564 94.344C527.769 94.344 531.865 93.2773 534.852 91.144C537.838 88.9253 540.228 86.0667 542.02 82.568L546.116 85.256C545.348 87.4747 544.238 89.6507 542.788 91.784C541.337 93.832 539.588 95.6667 537.54 97.288C535.492 98.824 533.06 100.061 530.244 101C527.513 102.024 524.441 102.536 521.028 102.536ZM577.044 101.768C572.521 101.768 569.406 100.872 567.7 99.08C565.993 97.2027 565.14 94.0453 565.14 89.608V41.224H556.692V34.952H557.844C559.636 34.952 561.044 34.824 562.068 34.568C563.177 34.312 564.03 33.9707 564.628 33.544C565.31 33.032 565.78 32.4347 566.036 31.752C566.377 30.984 566.676 30.1307 566.932 29.192L569.876 17.8H575.636V34.952H592.66V41.224H575.636V94.728H592.66V98.952C591.892 99.3787 590.91 99.7627 589.716 100.104C588.606 100.445 587.326 100.744 585.876 101C584.51 101.256 583.06 101.427 581.524 101.512C579.988 101.683 578.494 101.768 577.044 101.768Z" fill="white"/>
</svg>
